<svg width="81" height="80" viewBox="0 0 81 80" fill="none" xmlns="http://www.w3.org/2000/svg">
<path fill-rule="evenodd" clip-rule="evenodd" d="M3.05073 39.417L2.9 39.4466C2.9 40 3.50576 45.4747 4.65518 49.0658C6.09196 53.5547 16.1494 75.9995 45.6035 75.9995C67.3278 75.9995 73.9034 61.2172 77.6123 52.8794C77.9263 52.1736 78.2197 51.514 78.5 50.9135C59.45 57.4667 59.1283 44.2524 58.8906 34.4848C58.835 32.2032 58.784 30.1096 58.5 28.5L58.3878 28.5221C57.1367 14.7718 45.5763 4 31.5 4H30.5C15.036 4 2.5 16.536 2.5 32V34.3158C2.5 36.0671 2.69008 37.774 3.05073 39.417Z" fill="#EBEBED"/>
<path fill-rule="evenodd" clip-rule="evenodd" d="M2.80954 38.1548C2.82484 38.2487 2.8407 38.3424 2.8571 38.4359C2.88595 38.6003 2.9165 38.7642 2.94872 38.9275C2.98104 39.0912 3.01505 39.2544 3.05073 39.417L2.9 39.4466C2.9 39.4478 2.90001 39.4489 2.90001 39.4501C2.90061 39.5912 2.93796 40.0302 3.01112 40.6652L4.00455 40.5507C3.9925 40.4462 3.98148 40.3474 3.9715 40.2549L4.24657 40.2007L4.02747 39.2026C3.93989 38.8035 3.8628 38.4006 3.79652 37.9939L2.80954 38.1548ZM3.01743 39.4466H2.93914L2.93816 39.4417L3.01305 39.4244L3.01743 39.4466ZM3.34257 43.0915L4.33061 42.9374C4.44746 43.6862 4.58707 44.4949 4.74879 45.308L3.768 45.5031C3.60312 44.674 3.46114 43.8515 3.34257 43.0915ZM4.31395 47.8907L5.28062 47.6346C5.38485 48.0282 5.49393 48.4059 5.60759 48.761C5.71056 49.0827 5.86539 49.5162 6.07819 50.0431L5.15095 50.4176C4.93034 49.8713 4.76676 49.4144 4.65518 49.0658C4.53552 48.692 4.42175 48.2977 4.31395 47.8907ZM6.36456 53.064L7.25563 52.6101C7.64431 53.3732 8.10098 54.2049 8.63118 55.0841L7.77484 55.6005C7.23179 54.7 6.7636 53.8474 6.36456 53.064ZM9.35989 58.0369L10.1792 57.4635C10.6986 58.2057 11.2661 58.9656 11.8843 59.733L11.1055 60.3603C10.4726 59.5746 9.89164 58.7967 9.35989 58.0369ZM13.0036 62.5591L13.7378 61.8802C14.3623 62.5554 15.0272 63.2291 15.7345 63.8946L15.0492 64.6229C14.3245 63.941 13.6432 63.2507 13.0036 62.5591ZM17.2374 66.5409L17.8694 65.7659C18.5844 66.3491 19.3355 66.9203 20.1241 67.4745L19.549 68.2926C18.7404 67.7243 17.9703 67.1387 17.2374 66.5409ZM21.9858 69.8772L22.5003 69.0197C23.2932 69.4955 24.119 69.953 24.9788 70.3883L24.5272 71.2805C23.6456 70.8342 22.7988 70.3651 21.9858 69.8772ZM27.1673 72.5009L27.5545 71.579C28.4064 71.9367 29.2882 72.2726 30.2006 72.5836L29.878 73.5301C28.9436 73.2117 28.0403 72.8676 27.1673 72.5009ZM32.6596 74.3747L32.9182 73.4087C33.8151 73.6488 34.7391 73.8651 35.6907 74.0554L35.4947 75.036C34.5221 74.8415 33.5773 74.6203 32.6596 74.3747ZM38.3528 75.5169L38.489 74.5262C39.4076 74.6526 40.3501 74.7551 41.3169 74.8321L41.2375 75.8289C40.2519 75.7505 39.2905 75.6459 38.3528 75.5169ZM44.1371 75.9807L44.1629 74.981C44.6376 74.9933 45.1178 74.9995 45.6035 74.9995C46.1084 74.9995 46.6046 74.9913 47.0924 74.9753L47.1252 75.9748C46.6264 75.9911 46.1192 75.9995 45.6035 75.9995C45.1092 75.9995 44.6205 75.9931 44.1371 75.9807ZM50.1466 75.769L50.0421 74.7745C51.0517 74.6684 52.0207 74.5264 52.9512 74.3518L53.1357 75.3346C52.178 75.5144 51.1823 75.6602 50.1466 75.769ZM56.0855 74.6438L55.8129 73.6817C56.7839 73.4066 57.708 73.0933 58.588 72.7466L58.9546 73.677C58.0435 74.0359 57.0881 74.3598 56.0855 74.6438ZM61.7076 72.4216L61.2447 71.5351C62.1293 71.0731 62.9636 70.5749 63.7512 70.0467L64.3082 70.8772C63.4908 71.4254 62.6252 71.9423 61.7076 72.4216ZM66.7279 69.0549L66.0839 68.2899C66.8439 67.6501 67.5536 66.9816 68.2178 66.2924L68.9379 66.9864C68.2508 67.6992 67.5158 68.3916 66.7279 69.0549ZM70.9293 64.7083L70.1464 64.0862C70.7685 63.3033 71.3431 62.5058 71.8764 61.7039L72.7091 62.2577C72.1617 63.0808 71.5705 63.9013 70.9293 64.7083ZM74.2918 59.6761L73.4218 59.1832C73.9254 58.2943 74.3852 57.4139 74.8098 56.5558L75.7061 56.9993C75.2749 57.8708 74.8063 58.7681 74.2918 59.6761ZM76.9958 54.258L76.0845 53.8464C76.2979 53.3738 76.5017 52.9157 76.6986 52.4729L76.7011 52.4674C76.7745 52.3025 76.8469 52.1397 76.9183 51.9794L77.4449 52.2142L77.1762 51.3466C77.3656 51.2879 77.5571 51.2272 77.7505 51.1643C77.783 51.1537 77.8156 51.1431 77.8482 51.1324C78.063 51.062 78.2803 50.9891 78.5 50.9135C78.4257 51.0726 78.3505 51.2359 78.2742 51.4032C78.2538 51.448 78.2332 51.4932 78.2126 51.5386C78.1216 51.7391 78.0291 51.9449 77.9348 52.1557C77.8131 52.1949 77.6921 52.2332 77.5718 52.2708L77.8317 52.3867C77.7596 52.5482 77.6866 52.7125 77.6123 52.8794C77.4155 53.3218 77.2106 53.7824 76.9958 54.258ZM74.5094 52.067L74.7308 53.0422C73.7356 53.2682 72.7963 53.4308 71.9096 53.5336L71.7945 52.5402C72.6417 52.4421 73.5454 52.2859 74.5094 52.067ZM69.039 52.654L68.9955 53.653C67.9227 53.6063 66.942 53.4502 66.0468 53.192L66.3239 52.2312C67.135 52.4651 68.0366 52.6103 69.039 52.654ZM63.8341 51.068L63.266 51.8909C62.3955 51.2899 61.6697 50.5606 61.0656 49.7396L61.871 49.1469C62.4152 49.8866 63.0628 50.5354 63.8341 51.068ZM60.5483 46.732L59.6212 47.107C59.2617 46.2179 58.9831 45.2787 58.7653 44.3151L59.7407 44.0946C59.9491 45.0167 60.2129 45.9027 60.5483 46.732ZM59.2806 41.3733C59.1704 40.4653 59.0948 39.5428 59.0403 38.6226L58.042 38.6817C58.0974 39.6166 58.1746 40.5602 58.2878 41.4937L59.2806 41.3733ZM58.926 35.8629L57.9264 35.8914C57.9131 35.4245 57.9019 34.963 57.8909 34.5113L57.8909 34.5092C57.8784 33.998 57.8663 33.4997 57.8517 33.0145L58.8513 32.9845C58.8659 33.473 58.8781 33.9742 58.8906 34.4848C58.9016 34.9376 58.9128 35.3977 58.926 35.8629ZM58.6916 29.9879L57.6958 30.079C57.6835 29.9449 57.6704 29.8136 57.6564 29.6853L57.4925 29.7176L57.3919 28.6127C57.3502 28.1543 57.2966 27.6994 57.2314 27.2482L58.2212 27.1052C58.2751 27.4785 58.3214 27.8541 58.3599 28.2321C58.3696 28.3279 58.3789 28.4238 58.3876 28.5198C58.3877 28.5206 58.3877 28.5213 58.3878 28.5221L58.5 28.5C58.5007 28.5039 58.5014 28.5078 58.5021 28.5117C58.5295 28.6681 58.5548 28.829 58.5781 28.9942C58.5856 29.0479 58.593 29.102 58.6001 29.1566C58.6351 29.4234 58.6653 29.7009 58.6916 29.9879ZM57.6644 24.3085L56.6954 24.5556C56.4678 23.663 56.194 22.7888 55.8767 21.9359L56.8139 21.5872C57.1435 22.4733 57.4279 23.3813 57.6644 24.3085ZM55.6795 18.972L54.7845 19.418C54.3748 18.5961 53.9229 17.7988 53.4314 17.029L54.2743 16.4909C54.7846 17.2903 55.254 18.1183 55.6795 18.972ZM52.6156 14.1719L51.834 14.7956C51.2624 14.0793 50.6537 13.3938 50.0108 12.7421L50.7227 12.0398C51.3901 12.7165 52.0221 13.4281 52.6156 14.1719ZM48.6167 10.1179L47.9823 10.8909C47.2753 10.3108 46.5373 9.76718 45.771 9.26305L46.3207 8.42764C47.1163 8.95113 47.8827 9.51555 48.6167 10.1179ZM43.8592 6.98844L43.4008 7.8772C42.5904 7.45919 41.7552 7.08259 40.898 6.75016L41.2596 5.81782C42.15 6.16313 43.0175 6.55431 43.8592 6.98844ZM38.5507 4.92988L38.2902 5.89536C37.413 5.65869 36.5173 5.46676 35.6058 5.3222L35.7624 4.33454C36.7091 4.48468 37.6395 4.68403 38.5507 4.92988ZM32.9262 4.03702L32.8742 5.03567C32.4192 5.01199 31.9611 5 31.5 5H31.25V4H31.5C31.9784 4 32.4539 4.01244 32.9262 4.03702ZM30.75 4V5H30.5C29.9913 5 29.486 5.01406 28.9844 5.04179L28.9292 4.04332C29.4491 4.01457 29.9729 4 30.5 4H30.75ZM25.8075 4.39148L25.9739 5.37754C24.9699 5.54695 23.9848 5.77177 23.0219 6.04873L22.7455 5.08769C23.7444 4.80039 24.7662 4.56719 25.8075 4.39148ZM19.7819 6.12466L20.165 7.04838C19.2283 7.4368 18.3182 7.87646 17.4381 8.3639L16.9536 7.48911C17.8664 6.98358 18.8104 6.52755 19.7819 6.12466ZM14.2961 9.16233L14.8755 9.9774C14.0511 10.5634 13.261 11.1945 12.5088 11.8671L11.8422 11.1217C12.6221 10.4243 13.4413 9.76992 14.2961 9.16233ZM9.62171 13.3422L10.3671 14.0088C9.69447 14.761 9.06335 15.5511 8.4774 16.3755L7.66233 15.7961C8.26992 14.9413 8.92429 14.1221 9.62171 13.3422ZM5.98911 18.4536L6.8639 18.9381C6.37646 19.8182 5.9368 20.7283 5.54838 21.665L4.62466 21.2819C5.02756 20.3104 5.48357 19.3664 5.98911 18.4536ZM3.58769 24.2455L4.54873 24.5219C4.27177 25.4848 4.04695 26.4699 3.87754 27.4739L2.89148 27.3075C3.06718 26.2662 3.30038 25.2444 3.58769 24.2455ZM2.54332 30.4292L3.54179 30.4844C3.51406 30.986 3.5 31.4913 3.5 32V32.5789H2.5V32C2.5 31.4729 2.51456 30.9491 2.54332 30.4292ZM2.5 33.7368H3.5V34.3158C3.5 34.729 3.51104 35.1395 3.53282 35.547L2.53425 35.6004C2.51151 35.1751 2.5 34.7468 2.5 34.3158V33.7368Z" fill="#C6C5CF"/>
<path fill-rule="evenodd" clip-rule="evenodd" d="M32.5052 42.4874C32.6381 42.1666 32.7448 41.8364 32.8246 41.5L20.1754 41.5C20.2552 41.8364 20.3619 42.1666 20.4948 42.4874C20.8214 43.2761 21.3002 43.9926 21.9038 44.5962C22.5074 45.1998 23.2239 45.6786 24.0126 46.0052C24.8012 46.3319 25.6464 46.5 26.5 46.5C27.3536 46.5 28.1988 46.3319 28.9874 46.0052C29.7761 45.6786 30.4926 45.1998 31.0962 44.5962C31.6998 43.9926 32.1786 43.2761 32.5052 42.4874ZM18.6419 41.5C18.5477 41.0068 18.5 40.5046 18.5 40L34.5 40C34.5 40.5046 34.4523 41.0068 34.3581 41.5C34.2562 42.0338 34.1 42.557 33.891 43.0615C33.489 44.0321 32.8997 44.914 32.1569 45.6569C31.414 46.3997 30.5321 46.989 29.5615 47.391C28.5909 47.7931 27.5506 48 26.5 48C25.4494 48 24.4091 47.7931 23.4385 47.391C22.4679 46.989 21.586 46.3997 20.8431 45.6569C20.1003 44.914 19.511 44.0321 19.109 43.0615C18.9 42.557 18.7438 42.0338 18.6419 41.5Z" fill="#908D9E"/>
<path fill-rule="evenodd" clip-rule="evenodd" d="M21.75 27.25C22.1642 27.25 22.5 27.5858 22.5 28C22.5 29.5913 21.8679 31.1174 20.7426 32.2426C19.6174 33.3679 18.0913 34 16.5 34C14.9087 34 13.3826 33.3679 12.2574 32.2426C11.1321 31.1174 10.5 29.5913 10.5 28C10.5 27.5858 10.8358 27.25 11.25 27.25C11.6642 27.25 12 27.5858 12 28C12 29.1935 12.4741 30.3381 13.318 31.182C14.1619 32.0259 15.3065 32.5 16.5 32.5C17.6935 32.5 18.8381 32.0259 19.682 31.182C20.5259 30.3381 21 29.1935 21 28C21 27.5858 21.3358 27.25 21.75 27.25Z" fill="#908D9E"/>
<path fill-rule="evenodd" clip-rule="evenodd" d="M43.75 27.25C44.1642 27.25 44.5 27.5858 44.5 28C44.5 29.5913 43.8679 31.1174 42.7426 32.2426C41.6174 33.3679 40.0913 34 38.5 34C36.9087 34 35.3826 33.3679 34.2574 32.2426C33.1321 31.1174 32.5 29.5913 32.5 28C32.5 27.5858 32.8358 27.25 33.25 27.25C33.6642 27.25 34 27.5858 34 28C34 29.1935 34.4741 30.3381 35.318 31.182C36.1619 32.0259 37.3065 32.5 38.5 32.5C39.6935 32.5 40.8381 32.0259 41.682 31.182C42.5259 30.3381 43 29.1935 43 28C43 27.5858 43.3358 27.25 43.75 27.25Z" fill="#908D9E"/>
</svg>
